<svg data-v-0dd9719b="" version="1.0" xmlns="http://www.w3.org/2000/svg" xmlns:xlink="http://www.w3.org/1999/xlink" width="100%" height="100%" viewBox="0 0 340.000000 250.000000" preserveAspectRatio="xMidYMid meet" color-interpolation-filters="sRGB" style="margin: auto;"> <rect data-v-0dd9719b="" x="0" y="0" width="100%" height="100%" fill="#ffffff" fill-opacity="1" class="background"></rect> <rect data-v-0dd9719b="" x="0" y="0" width="100%" height="100%" fill="url(#watermark)" fill-opacity="1" class="watermarklayer"></rect> <g data-v-0dd9719b="" fill="#1582c7" class="icon-text-wrapper icon-svg-group iconsvg" transform="translate(48.96669006347656,95)"><g class="iconsvg-imagesvg" transform="translate(0,0)"><g><rect fill="#1582c7" fill-opacity="0" stroke-width="2" x="0" y="0" width="60" height="60" class="image-rect"></rect> <svg filter="url(#colors3994839582)" x="0" y="0" width="60" height="60" filtersec="colorsf5767171" class="image-svg-svg primary" style="overflow: visible;"><svg fill="#000000" xmlns="http://www.w3.org/2000/svg" xmlns:xlink="http://www.w3.org/1999/xlink" version="1.0" x="0px" y="0px" viewBox="10 10 80 80" enable-background="new 0 0 100 100" xml:space="preserve"><path d="M87.034,65.085c-6.631,1.9-13.45,2.91-20.381,2.91c-21.897,0-42.07-9.46-55.967-25.231C10.257,45.114,10,47.526,10,50  c0,22.093,17.907,40,40,40C66.751,90,81.077,79.694,87.034,65.085z"></path><path d="M89.3,57.317C89.739,54.941,90,52.503,90,50c-27.087,11.218-57.575,1.533-73.652-21.572c-1.328,2.07-2.48,4.265-3.415,6.575  C25.856,51.66,45.837,61.328,66.653,61.328C74.199,61.328,81.843,59.974,89.3,57.317z"></path><path d="M89.355,43.05l-1.911,0.791c-24.756,10.254-52.789,0.834-66.771-20.979C27.981,14.971,38.398,10,50,10  C69.714,10,86.062,24.277,89.355,43.05z"></path></svg></svg> <defs><filter id="colors3994839582"><feColorMatrix type="matrix" values="0 0 0 0 0.08203125  0 0 0 0 0.5078125  0 0 0 0 0.77734375  0 0 0 1 0" class="icon-fecolormatrix"></feColorMatrix></filter> <filter id="colorsf5767171"><feColorMatrix type="matrix" values="0 0 0 0 0.99609375  0 0 0 0 0.99609375  0 0 0 0 0.99609375  0 0 0 1 0" class="icon-fecolormatrix"></feColorMatrix></filter> <filter id="colorsb4380207165"><feColorMatrix type="matrix" values="0 0 0 0 0  0 0 0 0 0  0 0 0 0 0  0 0 0 1 0" class="icon-fecolormatrix"></feColorMatrix></filter></defs></g></g> <g transform="translate(67,1.9837532043457031)"><g data-gra="path-name" fill-rule="" class="tp-name iconsvg-namesvg" transform="translate(0,0)"><g transform="scale(1)"><g><path d="M7.69 2.7Q5.71 3.51 4.91 2.38L4.91 2.38Q3.73 0.85 6.43-0.22L6.43-0.22Q12.38-2.92 15.3-7.79L15.3-7.79Q17.68-11.7 18.5-18.13L18.5-18.13 7.83-18.13Q6.25-18.13 6.25-19.71 6.25-21.29 7.83-21.29L7.83-21.29 18.86-21.29Q18.9-21.82 18.97-22.86 19.04-23.89 19.04-24.39L19.04-24.39Q19.13-25.96 20.7-25.96L20.7-25.96Q22.41-25.96 22.32-24.25L22.32-24.25Q22.27-23.76 22.21-22.77 22.14-21.78 22.09-21.29L22.09-21.29 32.04-21.29Q33.34-21.29 33.93-20.25L33.93-20.25Q34.6-19.04 34.47-16.11L34.47-16.11Q34.06-7.15 33.57-3.33L33.57-3.33Q33.03 0.36 32.09 1.53L32.09 1.53Q31 2.92 28.84 3.06L28.84 3.06Q27.58 3.19 24.79 3.1L24.79 3.1Q22.99 3.01 22.68 1.44L22.68 1.44 22.63 1.35Q22 0 23.85 0.14L23.85 0.14Q24.21 0.14 24.88 0.18L24.88 0.18Q27 0.22 27.54 0.22L27.54 0.22Q28.66 0.22 29.16-0.36L29.16-0.36Q30.46-1.89 31.09-16.29L31.09-16.29Q31.14-17.37 30.96-17.77L30.96-17.77Q30.73-18.13 30.24-18.13L30.24-18.13 21.73-18.13Q20.79-10.62 18-6.03L18-6.03Q14.63-0.36 7.69 2.7L7.69 2.7ZM7.25-4.54Q6.39-3.55 5.17-4.32L5.17-4.32Q3.6-5.31 4.86-6.61L4.86-6.61Q7.29-9.36 9.22-13.32L9.22-13.32Q9.86-14.58 11.21-13.9L11.21-13.9Q12.51-13.23 11.92-12.01L11.92-12.01Q11.12-10.35 9.86-8.19L9.86-8.19Q8.59-6.12 7.25-4.54L7.25-4.54ZM41.09-4.27Q39.51-3.65 39.1-5.04L39.1-5.04Q38.38-6.84 37.62-8.46L37.62-8.46Q36.81-10.21 35.68-12.29L35.68-12.29Q34.88-13.68 36.41-14.22L36.41-14.22Q37.62-14.71 38.25-13.59L38.25-13.59Q40.81-9.31 42.07-5.94L42.07-5.94Q42.43-4.86 41.09-4.27L41.09-4.27ZM14.76-25.29L14.76-25.29Q13.14-25.29 13.14-26.91L13.14-26.91 13.14-30.24 4.68-30.24Q3.15-30.24 3.15-31.81L3.15-31.81Q3.15-33.34 4.68-33.34L4.68-33.34 13.14-33.34 13.14-36Q13.14-37.62 14.76-37.62L14.76-37.62Q16.38-37.62 16.38-36L16.38-36 16.38-33.34 28.57-33.34 28.57-36Q28.57-37.62 30.24-37.62L30.24-37.62Q31.86-37.62 31.86-36L31.86-36 31.86-33.34 40.45-33.34Q41.98-33.34 41.98-31.81L41.98-31.81Q41.98-30.24 40.45-30.24L40.45-30.24 31.86-30.24 31.86-26.91Q31.86-25.29 30.24-25.29L30.24-25.29Q28.57-25.29 28.57-26.91L28.57-26.91 28.57-30.24 16.38-30.24 16.38-26.91Q16.38-25.29 14.76-25.29ZM51.88 1.8Q50.35 3.42 49.12 2.14 47.88 0.85 49.45-0.72L49.45-0.72Q53.37-5.13 54.86-11.43L54.86-11.43Q55.89-15.97 55.89-22.99L55.89-22.99 55.89-35.23Q55.89-36.85 57.51-36.85L57.51-36.85Q59.13-36.85 59.13-35.23L59.13-35.23 59.13-22.99Q59.13-15.12 57.96-10.08L57.96-10.08Q56.3-3.06 51.88 1.8L51.88 1.8ZM83.34 2.88L83.34 2.88Q81.67 2.88 81.67 1.26L81.67 1.26 81.67-35.41Q81.67-37.03 83.34-37.03L83.34-37.03Q84.96-37.03 84.96-35.41L84.96-35.41 84.96 1.26Q84.96 2.88 83.34 2.88ZM70.11 0.36L70.11 0.36Q68.49 0.36 68.49-1.26L68.49-1.26 68.49-34.29Q68.49-35.91 70.11-35.91L70.11-35.91Q71.73-35.91 71.73-34.29L71.73-34.29 71.73-1.26Q71.73 0.36 70.11 0.36ZM65.3-14.22Q63.63-13.5 63.31-15.12L63.31-15.12Q63.05-16.47 62.33-18.9L62.33-18.9Q61.7-21.06 60.8-23.49L60.8-23.49Q60.25-24.79 61.65-25.33L61.65-25.33Q62.95-25.88 63.5-24.57L63.5-24.57Q65.52-19.71 66.28-15.79L66.28-15.79Q66.38-15.16 66.15-14.83 65.92-14.49 65.3-14.22L65.3-14.22ZM50.17-14.63Q49.59-13.59 48.28-14.13L48.28-14.13Q46.76-14.8 47.52-16.11L47.52-16.11Q49.55-19.93 50.63-25.15L50.63-25.15Q50.89-26.59 52.38-26.19L52.38-26.19Q53.64-25.79 53.41-24.57L53.41-24.57Q52.7-21.29 52.11-19.35L52.11-19.35Q51.21-16.52 50.17-14.63L50.17-14.63ZM79.16-14.71Q78.3-14.26 77.85-14.4 77.4-14.54 77.13-15.39L77.13-15.39Q76.72-16.79 75.64-19.21L75.64-19.21Q74.52-21.82 73.44-23.8L73.44-23.8Q72.81-25.02 74.07-25.7L74.07-25.7Q75.28-26.32 75.96-25.15L75.96-25.15Q78.66-20.47 80.06-16.38L80.06-16.38Q80.23-15.79 80.01-15.39L80.01-15.39Q79.83-15.07 79.16-14.71L79.16-14.71ZM100.26 3.46L100.26 3.46Q98.64 3.46 98.64 1.84L98.64 1.84 98.64-22.14Q96.8-19.66 95-17.73L95-17.73Q94.14-16.83 93.51-16.88 92.88-16.92 92.25-17.91L92.25-17.91Q91.75-18.72 91.82-19.33 91.89-19.93 92.61-20.61L92.61-20.61Q98.82-26.82 102.78-36.09L102.78-36.09Q103.41-37.57 104.94-37.13L104.94-37.13Q106.61-36.59 105.93-35.01L105.93-35.01Q104.13-30.87 101.88-27.09L101.88-27.09 101.88 1.84Q101.88 3.46 100.26 3.46ZM130.55 1.75L107.14 1.75Q105.53 1.75 105.53 0.14 105.53-1.48 107.14-1.48L107.14-1.48 116.95-1.48 116.95-15.3 105.44-15.3Q103.81-15.3 103.81-16.92 103.81-18.54 105.44-18.54L105.44-18.54 116.95-18.54 116.95-30.42Q111.91-29.52 107.69-29.02L107.69-29.02Q106.29-28.84 105.84-30.11L105.84-30.11Q105.3-31.68 107.14-31.95L107.14-31.95Q120.73-33.88 127.57-36.18L127.57-36.18Q128.2-36.41 128.66-36.23L128.66-36.23Q128.97-36.05 129.51-35.46L129.51-35.46Q130.32-34.56 130.23-34 130.14-33.44 129.06-33.12L129.06-33.12Q125.14-31.95 120.24-31L120.24-31 120.24-18.54 131.18-18.54Q132.8-18.54 132.8-16.92 132.8-15.3 131.18-15.3L131.18-15.3 120.24-15.3 120.24-1.48 130.55-1.48Q132.16-1.48 132.16 0.14 132.16 1.75 130.55 1.75L130.55 1.75ZM151.56 2.79Q149.81 3.55 148.95 2.21L148.95 2.21 148.91 2.16 148.86 2.07Q147.78 0.99 149.49 0.36L149.49 0.36Q154.71-2.02 156.69-6.79L156.69-6.79Q158.18-10.44 158.53-18.36L158.53-18.36 154.17-18.36Q152.55-18.36 152.55-19.98 152.55-21.6 154.17-21.6L154.17-21.6 176.13-21.6Q177.75-21.6 177.75-19.98 177.75-18.36 176.13-18.36L176.13-18.36 170.01-18.36 170.01-1.44Q170.01-0.49 170.21-0.25 170.41 0 171.13 0L171.13 0 174.19 0Q174.64 0 174.87-0.36L174.87-0.36Q175.14-0.77 175.23-1.84L175.23-1.84Q175.32-3.38 175.77-4.41L175.77-4.41Q176.35-5.71 177.3-5.26L177.3-5.26Q178.34-4.77 178.2-2.07L178.2-2.07Q177.88 0.94 177.1 2.05 176.31 3.15 174.51 3.15L174.51 3.15 170.69 3.15Q168.39 3.15 167.58 2.21 166.77 1.26 166.77-1.4L166.77-1.4 166.77-18.36 161.73-18.36Q161.32-9.63 159.53-5.35L159.53-5.35Q157.28 0.04 151.56 2.79L151.56 2.79ZM138.96-2.29Q138.19-2.11 137.81-2.41 137.43-2.7 137.25-3.55L137.25-3.55Q136.89-5.13 138.24-5.49L138.24-5.49Q140.09-5.94 143.28-6.79L143.28-6.79 143.28-18 139.63-18Q138.06-18 138.06-19.57 138.06-21.15 139.63-21.15L139.63-21.15 143.28-21.15 143.28-31.05 139-31.05Q137.47-31.05 137.47-32.63L137.47-32.63Q137.47-34.16 139-34.16L139-34.16 150.75-34.16Q152.28-34.16 152.28-32.63L152.28-32.63Q152.28-31.05 150.75-31.05L150.75-31.05 146.47-31.05 146.47-21.15 149.99-21.15Q151.56-21.15 151.56-19.57 151.56-18 149.99-18L149.99-18 146.47-18 146.47-7.6Q147.28-7.83 148.91-8.26 150.53-8.69 151.34-8.87L151.34-8.87Q152.87-9.27 153.09-7.69L153.09-7.69Q153.27-6.39 151.92-5.94L151.92-5.94Q146.75-4.54 138.96-2.29L138.96-2.29ZM173.84-31.32L156.1-31.32Q154.53-31.32 154.53-32.94L154.53-32.94Q154.53-34.52 156.1-34.52L156.1-34.52 173.84-34.52Q175.41-34.52 175.41-32.94L175.41-32.94Q175.41-31.32 173.84-31.32L173.84-31.32Z" transform="translate(-3.1500000953674316, 37.619998931884766)"></path></g> <!----> <!----> <!----> <!----> <!----> <!----> <!----></g></g> <g data-gra="path-slogan" fill-rule="" class="tp-slogan iconsvg-slogansvg" fill="#333333" transform="translate(5,47.07999801635742)"><rect x="0" height="1" y="3.9750003814697266" width="26.82248306274414"></rect> <rect height="1" y="3.9750003814697266" width="26.82248306274414" x="138.24413681030273"></rect> <g transform="translate(29.82248306274414,0)"><g transform="scale(1)"><path d="M7.17-6.09L7.17-6.09L6.09-6.09Q6-7.73 3.94-7.83L3.94-7.83Q2.02-7.78 2.02-6.33L2.02-6.33Q2.02-5.39 3.05-5.25L3.05-5.25L5.48-4.69Q7.41-4.22 7.41-2.34L7.41-2.34Q7.36 0.05 4.03 0.14L4.03 0.14Q2.20 0.14 1.45-0.61L1.45-0.61Q0.52-1.31 0.56-2.77L0.56-2.77L1.69-2.77Q1.73-0.80 4.03-0.75L4.03-0.75Q6.28-0.80 6.33-2.20L6.33-2.20Q6.52-3.38 4.45-3.75L4.45-3.75L2.67-4.13Q0.84-4.64 0.84-6.19L0.84-6.19Q0.98-8.72 3.84-8.81L3.84-8.81Q7.08-8.81 7.17-6.09ZM14.53-3.19L14.53-8.58L15.70-8.58L15.70-3.05Q15.56 0.05 12.19 0.14L12.19 0.14Q9.05 0.05 8.91-2.86L8.91-2.86L8.91-8.58L10.08-8.58L10.08-3.19Q10.13-0.84 12.23-0.80L12.23-0.80Q14.53-0.84 14.53-3.19L14.53-3.19ZM18.33-1.03L23.63-1.03L23.63 0L16.88 0L16.88-0.94L22.13-7.59L17.25-7.59L17.25-8.58L23.63-8.58L23.63-7.59L18.33-1.03ZM25.92-5.06L30.42-5.06L30.42-8.58L31.59-8.58L31.59 0L30.42 0L30.42-3.98L25.92-3.98L25.92 0L24.75 0L24.75-8.58L25.92-8.58L25.92-5.06ZM40.17-4.27L40.17-4.27Q39.98-7.64 37.17-7.83L37.17-7.83Q34.31-7.69 34.17-4.27L34.17-4.27Q34.31-0.94 37.17-0.80L37.17-0.80Q39.98-0.98 40.17-4.27ZM41.34-4.27L41.34-4.27Q41.06 0 37.17 0.14L37.17 0.14Q33.23 0 32.95-4.27L32.95-4.27Q33.19-8.72 37.17-8.81L37.17-8.81Q41.06-8.67 41.34-4.27ZM48.38-3.19L48.38-8.58L49.55-8.58L49.55-3.05Q49.41 0.05 46.03 0.14L46.03 0.14Q42.89 0.05 42.75-2.86L42.75-2.86L42.75-8.58L43.92-8.58L43.92-3.19Q43.97-0.84 46.08-0.80L46.08-0.80Q48.38-0.84 48.38-3.19L48.38-3.19ZM58.78-3.70L55.97-3.70L55.97 0L54.80 0L54.80-8.58L58.78-8.58Q61.64-8.58 61.64-6.28L61.64-6.28Q61.64-4.88 60.42-4.22L60.42-4.22Q61.45-3.94 61.45-2.58L61.45-2.58L61.55-1.03Q61.50-0.38 61.97-0.19L61.97-0.19L61.97 0L60.52 0Q60.38-0.61 60.33-2.16L60.33-2.16Q60.38-3.70 58.78-3.70L58.78-3.70ZM58.88-7.64L55.97-7.64L55.97-4.69L58.69-4.69Q60.42-4.69 60.42-6.19L60.42-6.19Q60.42-7.64 58.88-7.64L58.88-7.64ZM64.59-1.03L69.75-1.03L69.75 0L63.42 0L63.42-8.58L69.66-8.58L69.66-7.59L64.59-7.59L64.59-4.92L69.28-4.92L69.28-3.89L64.59-3.89L64.59-1.03ZM72.66-8.58L76.97-1.64L76.97-8.58L78.09-8.58L78.09 0L76.78 0L72.42-6.94L72.38-6.94L72.38 0L71.25 0L71.25-8.58L72.66-8.58ZM84.66-7.13L84.61-7.13L82.64 0L81.42 0L79.17-8.58L80.39-8.58L82.03-1.59L82.08-1.59L84-8.58L85.27-8.58L87.19-1.59L87.23-1.59L88.83-8.58L90.09-8.58L87.84 0L86.63 0L84.66-7.13ZM96.84 0L96-2.48L92.53-2.48L91.64 0L90.47 0L93.70-8.58L95.02-8.58L98.11 0L96.84 0ZM94.27-7.31L92.91-3.52L95.58-3.52L94.31-7.31L94.27-7.31ZM100.55-8.58L104.86-1.64L104.86-8.58L105.98-8.58L105.98 0L104.67 0L100.31-6.94L100.27-6.94L100.27 0L99.14 0L99.14-8.58L100.55-8.58Z" transform="translate(-0.5602678571428572, 8.8125)"></path></g></g></g></g></g><defs v-gra="od"></defs></svg>